<svg xmlns="http://www.w3.org/2000/svg" width="1000" height="141"><path d="M429 41h19v25l1.934-5.215 2.503-6.722 1.276-3.444 1.22-3.271 1.127-3.031C457 42 457 42 458 41c2.533-.073 5.031-.092 7.563-.063L473 41l1 24c2.262-7.523 2.262-7.523 4.517-15.049l.854-2.822.873-2.904C481 42 481 42 482 41a62.92 62.92 0 0 1 4.254-.098l2.588.01 2.72.026 2.733.013c2.235.012 4.47.03 6.705.049l-2 8 22 1v5l-24-2-1 6h24l-1 5-24-2-2 5h25v5c-8.694.158-17.329-.442-26-1l-2 5h27l-1 5c-24.01-1.505-24.01-1.505-27-3l-2 7h28l-1 5-28-3-1 6 29 1-1 5-30-3v3h-24l-1-18-7 18h-22V41ZM2 0c4.989-.166 9.177.347 13.994 1.63l2.013.528c2.195.579 4.387 1.17 6.579 1.76l4.685 1.24c4.175 1.105 8.347 2.22 12.519 3.338 4.312 1.153 8.625 2.298 12.94 3.443 6.035 1.604 12.07 3.21 18.105 4.82a5987.68 5987.68 0 0 0 27.849 7.358l10.03 2.633c2.05.538 4.102 1.074 6.153 1.608 2.802.731 5.603 1.47 8.403 2.208l2.407.623c11.819 3.142 17.368 7.986 23.968 18.385C153 52 153 52 153 54c-16.865-1.541-33.684-3.507-50.487-5.61-4.284-.535-8.57-1.057-12.858-1.548C53.235 42.65 53.235 42.65 40 33a795.636 795.636 0 0 0-3.918-2.653C32.63 28.01 29.312 25.534 26 23l-2.738-2.094C15.642 14.934 7.818 8.797 2 1V0ZM377 0c-6.694 15.656-28.852 27.785-42.688 36.25l-2.078 1.338c-4.765 2.787-9.498 3.999-14.906 4.893l-2.252.384c-8.452 1.411-16.941 2.526-25.44 3.615l-5.077.66c-3.506.456-7.013.908-10.52 1.359-4.491.577-8.982 1.16-13.473 1.745-3.476.452-6.953.902-10.43 1.351-1.658.214-3.315.43-4.973.645-2.303.299-4.607.595-6.91.89l-3.963.51C231 54 231 54 227 54c.56-4.114 1.853-6.691 4.25-10.063l1.766-2.535c3.644-4.412 7.218-6.795 12.707-8.362l3.483-1.004L253 31l1.966-.538c5.147-1.402 10.306-2.75 15.468-4.095l5.052-1.323c4.425-1.16 8.85-2.315 13.277-3.47 5.232-1.367 10.463-2.737 15.694-4.106 4.32-1.131 8.642-2.261 12.964-3.388a3444.843 3444.843 0 0 0 23.735-6.263c3.516-.944 7.033-1.883 10.55-2.822 1.66-.445 3.321-.893 4.98-1.344 2.29-.622 4.583-1.235 6.877-1.846l2.025-.558C369.48.22 372.978-.179 377 0ZM35 43c13.982 1.321 27.906 2.934 41.832 4.75l6.052.784c4.183.543 8.365 1.088 12.547 1.634 5.347.698 10.696 1.389 16.044 2.078 4.147.535 8.293 1.075 12.439 1.616 1.973.257 3.946.512 5.92.765 2.748.354 5.496.714 8.243 1.076l2.436.309c12.118 1.619 12.118 1.619 16.174 5.675C163 70.195 163 70.195 163 74c-16.997.738-33.997 1.41-51 2l-2.606.093c-4.59.16-9.177.273-13.769.344l-3.112.104c-21.43.13-40.781-16.923-56.22-30.166C35 45 35 45 35 43ZM344 43c-5.372 12.345-23.632 21.399-35.063 27.563l-1.8.976c-7.872 4.097-14.753 4.784-23.45 4.711l-3.499-.012c-21.071-.19-42.14-1.303-63.188-2.238.677-3.693 1.514-6.414 3.5-9.625l1.344-2.29c5.532-5.35 14.619-5.797 21.937-6.71l3.147-.416c3.404-.447 6.81-.88 10.217-1.314l7.13-.93c4.965-.646 9.932-1.287 14.9-1.923a8883.9 8883.9 0 0 0 19.11-2.471c6.077-.792 12.156-1.578 18.235-2.364l3.516-.456c3.277-.424 6.553-.844 9.83-1.263l2.946-.383 2.705-.344 2.345-.3C340 43 340 43 344 43ZM851 50h64l-1 5-28-2 2 6h25l-1 5c-3.25-.308-6.5-.622-9.75-.938l-2.79-.263-2.694-.264-2.476-.238c-2.161-.28-4.19-.721-6.29-1.297v6h24l-1 5c-8.135.285-15.976-.816-24-2l-1 5 24 1-1 5-2.895-.219c-13.998-1.9-13.998-1.9-27.105 1.219l1 2 28 1v5c-3.75-.307-7.5-.622-11.25-.938l-3.223-.263-3.105-.264-2.857-.238A41.308 41.308 0 0 1 881 87l2 6 24 1-1 5-22-2v2h-18c-3-9.5-3-9.5-3-14h-2c-.09 1.013-.09 1.013-.184 2.047l-.254 2.703-.246 2.672C860 95 860 95 859 99h-16c.602-9.383 1.963-18.501 3.584-27.749.421-2.406.833-4.812 1.244-7.22.265-1.534.53-3.068.797-4.601l.373-2.175c.886-5.024.886-5.024 2.002-7.255Zm14 14-1 7h5l2-6c-1.066-1.296-1.066-1.296-3.563-1.063L865 64ZM568 50h14c1.172 2.29 2.337 4.581 3.5 6.875l1.012 1.973C589 63.773 589 63.773 589 66h2c.09-1.23.09-1.23.184-2.484l.254-3.266c.08-1.067.162-2.135.246-3.234C592 54 592 54 593 50h48c-4 4-4 4-7.024 4.179l-3.492-.445-3.789-.449-3.945-.535c-1.33-.165-2.661-.328-3.992-.488A834.277 834.277 0 0 1 609 51l-1 8h25l-1 4-24-1-1 5h23l-1 5c-15.745-.964-15.745-.964-23-2l-1 6h23v5l-24-2v6h23l1 4c-8.514.313-16.603-.627-25-2l-1 7h28l2 4-2.5-.184A2405.87 2405.87 0 0 0 602 96l-1 3h-14c-1.172-2.29-2.337-4.581-3.5-6.875l-1.012-1.973C580 85.227 580 85.227 580 83h-2c-.09 1.104-.09 1.104-.184 2.23l-.254 2.957c-.08.963-.162 1.926-.246 2.918-.29 2.653-.793 5.279-1.316 7.895h-17c1.117-6.658 2.238-13.314 3.363-19.97.382-2.266.764-4.532 1.144-6.799a6540.69 6540.69 0 0 1 1.645-9.754l.515-3.085.485-2.85.424-2.517C567 52 567 52 568 50Z" fill="#001E3E"/><path d="m658.18 48.844 2.348.024c2.491.031 4.981.08 7.472.132l2.509.05c5.873.12 11.744.281 17.616.45l5.246.145c4.21.115 8.42.234 12.629.355-2.073 2.51-2.073 2.51-5 5-3.23.292-3.23.292-6.832-.168l-3.916-.459a4714.9 4714.9 0 0 1-4.064-.56c-1.375-.17-2.749-.338-4.124-.502A709.69 709.69 0 0 1 672 52l-1 6 29 1-1 5-30-3-1 3-3.176-.035-4.136-.028-2.092-.025c-3.144-.015-5.59.086-8.596 1.088l-4 20h6l2-4h-4l2-11 9-1-3-2h40v5c-6.284.1-12.328-.24-18.563-1-.817-.095-1.635-.19-2.478-.29-1.987-.231-3.973-.47-5.959-.71v6h28l2 5c-10.408-.568-20.673-1.602-31-3l-1 7h27l-1 5c-3.563-.308-7.125-.622-10.688-.938l-3.052-.263-2.96-.264-2.713-.238c-2.57-.295-5.059-.753-7.587-1.297v6l25 1-1 5-2.196-.231c-3.35-.34-6.701-.649-10.054-.957-1.14-.12-2.28-.24-3.453-.365-7.11-.626-12.825-.148-19.68 1.83-6.204 1.714-13.59 1.813-19.68-.465-4.186-2.583-6.383-5.151-7.937-9.812-1.067-10.264.447-22.943 6.621-31.422 6.318-7.23 13.095-8.93 22.559-8.734ZM785 41h43l-1 9h22l-1 5-22-2v4h-13v2h34v5l-2.69-.275c-3.303-.337-6.605-.673-9.908-1.007l-4.283-.436c-2.055-.21-4.11-.418-6.166-.626l-3.745-.38c-3.336-.333-3.336-.333-7.208-.276l-1 5 34 1-1 5c-11.423-.502-22.676-1.41-34-3l-1 7h34v5c-11.718-.614-23.34-1.695-35-3v6l34 1-1 5c-4.521-.404-9.042-.813-13.562-1.227-1.538-.14-3.077-.279-4.615-.416-2.21-.197-4.419-.4-6.628-.603l-2.09-.183c-4.877-.457-4.877-.457-7.105-1.571l-1 8h34v5a7348.92 7348.92 0 0 1-13.025-1.227c-1.476-.14-2.952-.278-4.429-.416-2.125-.198-4.25-.4-6.374-.603l-3.872-.365c-2.541-.3-4.853-.675-7.3-1.389v4h-18c.62-9.217 1.932-18.161 3.563-27.25l.708-4.027C792.843 64.48 793.42 61.24 794 58l-11-1c.141-2.104.288-4.209.438-6.313.08-1.171.162-2.343.246-3.55C784 44 784 44 785 41Z" fill="#001E3E"/><path d="m722.813 48.813 2.369-.038c4.994-.012 9.084.626 13.818 2.225-.478 1.771-.958 3.542-1.438 5.313l-.808 2.988A120.773 120.773 0 0 1 735 65l-18-1v2l3-.188c5.6.023 10.14 1.7 14.5 5.188 2.667 5.334 2.381 10.895.77 16.574-1.879 4.638-3.839 7.85-8.27 10.426-5.451 1.897-10.245 2.308-15.938 2.25l-2.302.023c-5.227-.017-9.736-.833-14.76-2.273 1.068-5.114 2.231-10.072 4-15l2.012.465c3.59.643 7.166.885 10.8 1.097l2.1.131c1.696.106 3.392.207 5.088.307v-2l-2.195-.078c-5.982-.351-10.168-.76-14.805-4.922-3.067-4.791-1.992-9.64-1-15 1.449-4.955 2.999-8.166 7-11.5 5.314-2.657 9.977-2.683 15.813-2.688ZM961 50c4.18-.074 8.361-.129 12.543-.165a550.75 550.75 0 0 0 4.262-.061 538.02 538.02 0 0 1 6.144-.067l3.73-.048c3.6.37 5.441 1.198 8.321 3.341 3.634 5 2.503 12.168 2 18-1.573 6.782-4.085 11.288-10 15-5.72 2.31-10.926 2.166-17 2l-2 11h-16c.642-8.987 2.034-17.754 3.584-26.619.42-2.403.832-4.808 1.244-7.213.265-1.535.53-3.07.797-4.606l.373-2.168c.508-2.892 1.072-5.603 2.002-8.394Zm14 14-2 10h6c1.95-4.947 1.95-4.947 1-10h-5ZM144.661 77.826c3.225-.151 6.448-.26 9.675-.353l2.797-.162c5.959-.106 5.959-.106 8.57 2.18C167.96 82.48 169 84.192 169 88a4281.158 4281.158 0 0 1-26 6l-3.802.873a1961.89 1961.89 0 0 1-11.135 2.502l-3.457.795c-17.221 3.775-30.09.172-45.731-7.17l-2.767-1.294c-4.325-2.097-8-3.913-11.108-7.706 7.893-.999 15.782-1.399 23.727-1.754l4.302-.197c3.004-.138 6.008-.273 9.012-.406 3.031-.135 6.062-.274 9.093-.416 7.972-.374 15.945-.724 23.921-1.008a806.13 806.13 0 0 0 9.606-.393ZM225.07 77.66l2.877.047c3.353.068 6.702.176 10.053.293l3.913.133c9.554.336 19.104.76 28.654 1.2 3.105.14 6.211.276 9.318.411 3.021.133 6.043.268 9.064.405l4.284.19c6.968.307 13.864.643 20.767 1.661-3.263 3.718-6.988 5.804-11.375 7.938l-2.124 1.047c-16.51 7.967-29.773 10.61-47.747 6.644l-3.433-.733c-3.588-.768-7.173-1.55-10.758-2.334l-7.303-1.564c-4.436-.953-8.872-1.907-13.305-2.875l-2.687-.585C213 89 213 89 210 88c2.514-9.217 6.17-10.623 15.07-10.34ZM523 50h43l-1 5c-3.792-.306-7.584-.62-11.375-.938l-3.273-.263-3.125-.264-2.889-.238C542 53 542 53 540 52l-1 7h25v5l-26-3v5l25 1-1 5c-2.854-.142-5.708-.288-8.563-.438l-2.423-.119c-4.728-.25-9.339-.696-14.014-1.443l-1 6h25v5c-16.708-.964-16.708-.964-25-2l-1 5 25 1-1 5a4072.57 4072.57 0 0 1-10.813-.938l-3.103-.263-2.979-.264-2.745-.238C537 88 537 88 534 87l-1 7h25l-1 5-25-3v3h-17c1.313-11.266 3.04-22.354 5.125-33.5L523 50ZM916 50h43l-1 5a4072.57 4072.57 0 0 1-10.813-.938l-3.103-.263-2.979-.264-2.745-.238C936 53 936 53 933 52l-1 7h26l-1 5-25-2-1 5h25l-1 5c-2.667-.142-5.333-.289-8-.438l-2.254-.119c-4.953-.28-9.83-.778-14.746-1.443l-1 6h25v5l-25-1-1 5h25l-1 5a4072.57 4072.57 0 0 1-10.813-.938l-3.103-.263-2.979-.264-2.745-.238C930 88 930 88 927 87l-1 7h25v5l-25-2-1 2h-17c1.49-10.836 3.255-21.6 5.125-32.375L916 50ZM172 91c1.922 2.371 1.922 2.371 3.75 5.438l1.86 2.996c2.12 5.44 2.434 10.407.585 16.002-1.1 2.455-2.315 4.782-3.632 7.126l-1.36 2.498c-3.467 6.143-7.272 11.9-13.203 15.94h-3c-.13-11.524.017-23.042.313-34.563l.068-3.91.107-3.656.08-3.283L158 93c4.177-2.785 9.222-4.04 14-2ZM215.188 90.75l2.667.61C220 92 220 92 221 93c.152 1.502.238 3.011.297 4.52l.121 2.912.117 3.166.13 3.224c.137 3.413.267 6.827.398 10.24.09 2.308.183 4.616.275 6.924.226 5.671.446 11.343.662 17.014-6.675-1.156-9.14-4.559-13-10-1.942-3.131-3.742-6.325-5.5-9.563l-1.35-2.433c-2.771-5.31-3.87-9.014-3.15-15.004 1.172-3.082 1.172-3.082 2.75-5.813l1.547-2.769c3.246-4.608 5.31-6.02 10.89-4.668ZM224 94c1.897.088 3.792.196 5.688.313l3.199.175c3.576.588 5.372 1.12 8.113 3.512 1.267 2.7 1.942 5.48 2.625 8.375l.618 2.428c.41 1.625.81 3.252 1.2 4.88a350.683 350.683 0 0 0 1.573 6.254c2.308 9.235 2.308 9.235.984 13.063-10.82-4.529-16.454-10.461-21-21.258-2.192-6.01-3.1-11.346-3-17.742ZM155 94c.857 10.928-2.932 21.664-10 30-4.557 4.835-8.428 7.768-15 9 1.154-7.352 2.733-14.619 4.375-21.875l.596-2.774c1.15-4.964 2.156-8.779 6.029-12.351 2.184-.926 2.184-.926 4.438-1.313l2.367-.417c2.421-.298 4.758-.427 7.195-.27Z" fill="#001E3E"/><path d="M135 99c-2.611 9.896-7.069 16.422-15.809 21.879-2.704 1.384-5.161 1.966-8.191 2.121 1.116-7.14 4.488-15.268 10-20.125 4.64-2.9 8.52-4.197 14-3.875Z" fill="#001E3D"/><path d="M245 99c6.975.481 10.986 1.986 16.063 7.063C264.327 111.013 268 116.966 268 123c-8.673-1.549-14.29-5.238-19.438-12.438-2.451-3.92-3.366-6.966-3.562-11.562Z" fill="#001D3D"/><path d="M751 67h40v5c-7.873.188-15.551-.534-23.375-1.375l-3.848-.383-3.675-.39-3.334-.35C754 69 754 69 751 67ZM744 41h39v5c-8.769-.46-17.511-1.074-26.25-1.938l-2.452-.226-2.314-.238-2.04-.203C748 43 748 43 744 41ZM750 76h40l-1 5c-13.112-.552-26.01-2.185-39-4v-1ZM391 67h36v5c-8.645-.448-17.264-1.046-25.875-1.938l-2.359-.226c-5.531-.601-5.531-.601-7.766-2.836ZM742 50h40l-1 5c-13.04-1.066-26.034-2.231-39-4v-1ZM748 85h40l-1 5a18959.28 18959.28 0 0 1-17.152-1.643C755.028 86.943 755.028 86.943 748 86v-1ZM391 41h36v5a555.364 555.364 0 0 1-23.625-1.938l-2.332-.226c-3.935-.425-6.441-1.035-10.043-2.836ZM391 76h36v5a555.364 555.364 0 0 1-23.625-1.938l-2.332-.226c-3.935-.425-6.441-1.035-10.043-2.836ZM747 94h39v5l-39-4v-1ZM753 59h40l-1 5-39-4v-1ZM391 50h36v5l-36-4v-1Z" fill="#001E3E"/><path d="M391 85h36v5l-36-4v-1Z" fill="#001E3D"/><path d="M391 94h36v5l-36-4v-1Z" fill="#001E3E"/><path d="M391 59h36v5l-36-4v-1Z" fill="#001E3F"/></svg>